<?xml version="1.0" standalone="no"?>
<!DOCTYPE svg PUBLIC "-//W3C//DTD SVG 20010904//EN"
 "http://www.w3.org/TR/2001/REC-SVG-20010904/DTD/svg10.dtd">
<svg version="1.0" xmlns="http://www.w3.org/2000/svg"
 width="500.000000pt" height="500.000000pt" viewBox="0 0 500.000000 500.000000"
 preserveAspectRatio="xMidYMid meet">
<metadata>
Created by potrace 1.14, written by Peter Selinger 2001-2017
</metadata>
<g transform="translate(0.000000,500.000000) scale(0.100000,-0.100000)"
fill="#000000" stroke="none">
<path d="M2405 3961 c-79 -36 -1121 -643 -1149 -669 -16 -15 -37 -45 -47 -67
-17 -38 -19 -79 -19 -721 0 -742 -2 -714 57 -781 33 -39 1137 -678 1198 -694
50 -14 113 -5 168 22 93 48 1084 623 1117 648 19 15 45 47 57 71 l23 43 0 689
c0 659 -1 690 -19 726 -11 20 -34 51 -53 68 -18 17 -184 118 -368 224 -871
502 -791 460 -870 460 -32 0 -72 -8 -95 -19z m155 -271 c19 -5 100 -47 180
-93 135 -78 145 -85 143 -111 -1 -16 -4 -31 -7 -34 -3 -2 -170 0 -372 5 -375
10 -383 11 -384 48 0 12 274 172 317 185 39 12 82 12 123 0z m-586 -332 c14
-111 59 -308 96 -420 94 -286 223 -445 402 -499 77 -23 123 -58 174 -133 18
-27 32 -51 31 -53 -6 -5 -449 -24 -454 -19 -12 12 61 143 99 179 34 33 37 38
17 32 -13 -4 -45 -23 -70 -41 -156 -113 -277 -408 -306 -742 -5 -59 -9 -72
-21 -67 -8 3 -105 57 -216 120 -125 72 -213 130 -234 152 -62 70 -63 84 -60
660 3 509 3 519 25 558 11 22 34 52 50 66 34 32 443 270 453 264 4 -3 10 -28
14 -57z m1519 -206 c16 -15 39 -45 50 -67 22 -39 22 -49 25 -563 2 -346 -1
-536 -8 -562 -22 -82 -60 -114 -299 -252 -123 -71 -224 -127 -225 -126 -1 2
-10 53 -20 113 -23 141 -79 366 -117 468 -90 245 -223 397 -379 437 -63 16
-130 67 -174 135 -21 31 -36 58 -34 60 2 3 468 23 475 20 1 0 -9 -27 -22 -59
-31 -76 -71 -132 -114 -162 -44 -30 -34 -31 22 -3 66 34 103 66 154 133 99
132 170 321 198 533 8 65 18 128 20 140 5 20 21 12 212 -99 115 -65 221 -132
236 -146z m-620 166 c-11 -111 -18 -151 -26 -151 -4 0 -139 3 -300 7 -160 4
-310 9 -333 12 l-41 6 -15 79 -15 79 26 1 c69 4 461 15 578 17 l132 2 -6 -52z
m-33 -245 c0 -10 -7 -53 -15 -96 -8 -43 -15 -81 -15 -84 0 -6 -309 3 -466 13
l-91 6 -25 77 c-18 54 -22 77 -13 79 13 3 403 18 538 20 77 2 87 0 87 -15z
m-251 -932 l145 -6 28 -84 c16 -46 27 -85 26 -87 -6 -5 -620 -25 -625 -21 -4
5 21 160 33 200 5 16 16 17 127 11 67 -3 187 -9 266 -13z m-37 -287 c135 -4
252 -10 259 -14 10 -7 44 -149 36 -156 -3 -3 -570 -24 -661 -24 l-59 0 7 83
c12 138 6 130 95 123 42 -3 187 -9 323 -12z m41 -283 c147 -4 269 -10 272 -12
2 -3 6 -20 7 -38 3 -32 -1 -36 -72 -79 -41 -24 -112 -65 -158 -89 -79 -43 -86
-45 -150 -41 -64 3 -77 9 -218 88 l-149 85 -3 51 -3 51 103 -4 c57 -2 223 -7
371 -12z"/>
</g>
</svg>
